<svg width="85" height="74" viewBox="0 0 85 74" fill="none" xmlns="http://www.w3.org/2000/svg">
<g clip-path="url(#clip0_47_693)">
<path d="M35.2893 58.1455L48.5128 69.6049C49.3241 70.3286 50.3385 70.8556 51.4556 71.1336C52.5727 71.4116 53.7538 71.4306 54.882 71.1891C56.0172 70.9592 57.0654 70.4792 57.9259 69.7947C58.7864 69.1102 59.4301 68.2449 59.7953 67.2813L81.5108 10.6178C81.9644 9.55607 82.0579 8.40341 81.7804 7.2968C81.5029 6.19013 80.8667 5.17612 79.9468 4.37522C79.027 3.57431 77.8619 3.02022 76.5912 2.7788C75.3198 2.53738 73.9956 2.61879 72.7765 3.01334L7.68973 21.9188C6.54478 22.2592 5.52506 22.8597 4.73593 23.6581C3.94681 24.4566 3.4169 25.4239 3.20099 26.4603C2.97812 27.4029 3.02773 28.3789 3.34536 29.3007C3.663 30.2224 4.2387 31.0611 5.02074 31.7412L21.6411 46.2107L21.0952 64.5354L35.2893 58.1455Z" stroke="#00057E" stroke-width="5" stroke-linecap="round" stroke-linejoin="round"/>
<path d="M79.5704 4.17468L21.6414 46.2103" stroke="#00057E" stroke-width="5" stroke-linecap="round" stroke-linejoin="round"/>
</g>
<defs>
<clipPath id="clip0_47_693">
<rect width="85" height="74" fill="white"/>
</clipPath>
</defs>
</svg>
